@startuml
set namespaceSeparator \\
hide members
hide << alias >> circle

class FOFIntegrationJoomlaFilesystem
FOFPlatformFilesystem <|-- FOFIntegrationJoomlaFilesystem
interface FOFPlatformFilesystemInterface
FOFPlatformFilesystemInterface <|.. FOFIntegrationJoomlaFilesystem
!include class-FOFPlatformFilesystem.puml
!include class-FOFPlatformFilesystemInterface.puml
@enduml
