@startuml
set namespaceSeparator \\
hide members
hide << alias >> circle

class FOFDatabaseQueryMysqli
FOFDatabaseQuery <|-- FOFDatabaseQueryMysqli
interface FOFDatabaseQueryLimitable
FOFDatabaseQueryLimitable <|.. FOFDatabaseQueryMysqli
!include class-FOFDatabaseQuery.puml
!include class-FOFDatabaseQueryLimitable.puml
@enduml
