@startuml
set namespaceSeparator \\
hide members
hide << alias >> circle

class FOFEncryptAesMcrypt
FOFEncryptAesAbstract <|-- FOFEncryptAesMcrypt
interface FOFEncryptAesInterface
FOFEncryptAesInterface <|.. FOFEncryptAesMcrypt
!include class-FOFEncryptAesAbstract.puml
!include class-FOFEncryptAesInterface.puml
@enduml
