@startuml
set namespaceSeparator \\
hide members
hide << alias >> circle

class OpenSSL
AKEncryptionAESAdapterAbstract <|-- OpenSSL
interface AKEncryptionAESAdapterInterface
AKEncryptionAESAdapterInterface <|.. OpenSSL
!include class-AKEncryptionAESAdapterAbstract.puml
!include class-AKEncryptionAESAdapterInterface.puml
@enduml
