@startuml
set namespaceSeparator \\
hide members
hide << alias >> circle

class JApplication
Joomla\\CMS\\Application\\BaseApplication <|-- JApplication
interface LoggerAwareInterface
LoggerAwareInterface <|.. JApplication
!include class-Joomla.CMS.Application.BaseApplication.puml
!include class-LoggerAwareInterface.puml
@enduml
