@startuml
set namespaceSeparator \\
hide members
hide << alias >> circle

class FOFDatabaseQueryOracle
FOFDatabaseQueryPdo <|-- FOFDatabaseQueryOracle
interface FOFDatabaseQueryPreparable
FOFDatabaseQueryPreparable <|.. FOFDatabaseQueryOracle
interface FOFDatabaseQueryLimitable
FOFDatabaseQueryLimitable <|.. FOFDatabaseQueryOracle
!include class-FOFDatabaseQueryPdo.puml
!include class-FOFDatabaseQueryPreparable.puml
!include class-FOFDatabaseQueryLimitable.puml
@enduml
