@startuml
abstract class Joomla.CMS.MVC.Model.BaseDatabaseModel
JObject <|-- Joomla.CMS.MVC.Model.BaseDatabaseModel

class Joomla.CMS.MVC.Model.ListModel
Joomla.CMS.MVC.Model.BaseDatabaseModel <|-- Joomla.CMS.MVC.Model.ListModel
abstract class Joomla.CMS.MVC.Model.FormModel
Joomla.CMS.MVC.Model.BaseDatabaseModel <|-- Joomla.CMS.MVC.Model.FormModel
abstract class Joomla.CMS.MVC.Model.ItemModel
Joomla.CMS.MVC.Model.BaseDatabaseModel <|-- Joomla.CMS.MVC.Model.ItemModel
abstract class Joomla.CMS.MVC.Model.AdminModel
Joomla.CMS.MVC.Model.FormModel <|-- Joomla.CMS.MVC.Model.AdminModel
@enduml
