@startuml
class Joomla.CMS.Cache.Controller.CallbackController
Joomla.CMS.Cache.Controller.CacheController <|-- Joomla.CMS.Cache.Controller.CallbackController

class Joomla.CMS.Cache.Controller.PageController
Joomla.CMS.Cache.Controller.CacheController <|-- Joomla.CMS.Cache.Controller.PageController
class Joomla.CMS.Cache.Controller.OutputController
Joomla.CMS.Cache.Controller.CacheController <|-- Joomla.CMS.Cache.Controller.OutputController
class Joomla.CMS.Cache.Controller.ViewController
Joomla.CMS.Cache.Controller.CacheController <|-- Joomla.CMS.Cache.Controller.ViewController
@enduml
