@startuml
class Joomla.CMS.Form.Field.EditorField
JFormFieldTextarea <|-- Joomla.CMS.Form.Field.EditorField

class Joomla.CMS.Form.Field.ModuletagField
JFormFieldList <|-- Joomla.CMS.Form.Field.ModuletagField
class Joomla.CMS.Form.Field.LimitboxField
JFormFieldList <|-- Joomla.CMS.Form.Field.LimitboxField
class Joomla.CMS.Form.Field.StatusField
JFormFieldPredefinedList <|-- Joomla.CMS.Form.Field.StatusField
class Joomla.CMS.Form.Field.MenuitemField
JFormFieldGroupedList <|-- Joomla.CMS.Form.Field.MenuitemField
class Joomla.CMS.Form.Field.UseractiveField
JFormFieldPredefinedList <|-- Joomla.CMS.Form.Field.UseractiveField
class Joomla.CMS.Form.Field.OrderingField
Joomla.CMS.Form.Field.FormField <|-- Joomla.CMS.Form.Field.OrderingField
class Joomla.CMS.Form.Field.HelpsiteField
JFormFieldList <|-- Joomla.CMS.Form.Field.HelpsiteField
class Joomla.CMS.Form.Field.UserstateField
JFormFieldPredefinedList <|-- Joomla.CMS.Form.Field.UserstateField
class Joomla.CMS.Form.Field.LastvisitdaterangeField
JFormFieldPredefinedList <|-- Joomla.CMS.Form.Field.LastvisitdaterangeField
class Joomla.CMS.Form.Field.MenuField
JFormFieldGroupedList <|-- Joomla.CMS.Form.Field.MenuField
class Joomla.CMS.Form.Field.ChromestyleField
JFormFieldGroupedList <|-- Joomla.CMS.Form.Field.ChromestyleField
class Joomla.CMS.Form.Field.RegistrationdaterangeField
JFormFieldPredefinedList <|-- Joomla.CMS.Form.Field.RegistrationdaterangeField
class Joomla.CMS.Form.Field.ContenthistoryField
Joomla.CMS.Form.Field.FormField <|-- Joomla.CMS.Form.Field.ContenthistoryField
class Joomla.CMS.Form.Field.HeadertagField
JFormFieldList <|-- Joomla.CMS.Form.Field.HeadertagField
class Joomla.CMS.Form.Field.MediaField
Joomla.CMS.Form.Field.FormField <|-- Joomla.CMS.Form.Field.MediaField
class Joomla.CMS.Form.Field.PluginstatusField
JFormFieldPredefinedList <|-- Joomla.CMS.Form.Field.PluginstatusField
class Joomla.CMS.Form.Field.ModulepositionField
JFormFieldText <|-- Joomla.CMS.Form.Field.ModulepositionField
class Joomla.CMS.Form.Field.FrontendlanguageField
JFormFieldList <|-- Joomla.CMS.Form.Field.FrontendlanguageField
class Joomla.CMS.Form.Field.ContentlanguageField
JFormFieldList <|-- Joomla.CMS.Form.Field.ContentlanguageField
class Joomla.CMS.Form.Field.UsergrouplistField
JFormFieldList <|-- Joomla.CMS.Form.Field.UsergrouplistField
class Joomla.CMS.Form.Field.UserField
Joomla.CMS.Form.Field.FormField <|-- Joomla.CMS.Form.Field.UserField
class Joomla.CMS.Form.Field.AuthorField
JFormFieldList <|-- Joomla.CMS.Form.Field.AuthorField
class Joomla.CMS.Form.Field.TemplatestyleField
JFormFieldGroupedList <|-- Joomla.CMS.Form.Field.TemplatestyleField
class Joomla.CMS.Form.Field.CaptchaField
Joomla.CMS.Form.Field.FormField <|-- Joomla.CMS.Form.Field.CaptchaField
class Joomla.CMS.Form.Field.ContenttypeField
JFormFieldList <|-- Joomla.CMS.Form.Field.ContenttypeField
class Joomla.CMS.Form.Field.ModuleorderField
Joomla.CMS.Form.Field.FormField <|-- Joomla.CMS.Form.Field.ModuleorderField
class Joomla.CMS.Form.Field.RedirectStatusField
JFormFieldPredefinedList <|-- Joomla.CMS.Form.Field.RedirectStatusField
class Joomla.CMS.Form.Field.TagField
JFormFieldList <|-- Joomla.CMS.Form.Field.TagField
@enduml
