@startuml
class ParagonIE.Sodium.Core.Curve25519.H
ParagonIE_Sodium_Core_Curve25519_H <|-- ParagonIE.Sodium.Core.Curve25519.H

class ParagonIE.Sodium.Core.Curve25519.Fe
ParagonIE_Sodium_Core_Curve25519_Fe <|-- ParagonIE.Sodium.Core.Curve25519.Fe
class ParagonIE.Sodium.Core.Curve25519.Ge.P1p1
ParagonIE_Sodium_Core_Curve25519_Ge_P1p1 <|-- ParagonIE.Sodium.Core.Curve25519.Ge.P1p1
class ParagonIE.Sodium.Core.Curve25519.Ge.Cached
ParagonIE_Sodium_Core_Curve25519_Ge_Cached <|-- ParagonIE.Sodium.Core.Curve25519.Ge.Cached
class ParagonIE.Sodium.Core.Curve25519.Ge.P2
ParagonIE_Sodium_Core_Curve25519_Ge_P2 <|-- ParagonIE.Sodium.Core.Curve25519.Ge.P2
class ParagonIE.Sodium.Core.Curve25519.Ge.Precomp
ParagonIE_Sodium_Core_Curve25519_Ge_Precomp <|-- ParagonIE.Sodium.Core.Curve25519.Ge.Precomp
class ParagonIE.Sodium.Core.Curve25519.Ge.P3
ParagonIE_Sodium_Core_Curve25519_Ge_P3 <|-- ParagonIE.Sodium.Core.Curve25519.Ge.P3
@enduml
