@startuml
class Joomla.CMS.Installer.Adapter.TemplateAdapter
Joomla.CMS.Installer.Adapter.InstallerAdapter <|-- Joomla.CMS.Installer.Adapter.TemplateAdapter

class Joomla.CMS.Installer.Adapter.LanguageAdapter
Joomla.CMS.Installer.Adapter.InstallerAdapter <|-- Joomla.CMS.Installer.Adapter.LanguageAdapter
class Joomla.CMS.Installer.Adapter.PluginAdapter
Joomla.CMS.Installer.Adapter.InstallerAdapter <|-- Joomla.CMS.Installer.Adapter.PluginAdapter
class Joomla.CMS.Installer.Adapter.PackageAdapter
Joomla.CMS.Installer.Adapter.InstallerAdapter <|-- Joomla.CMS.Installer.Adapter.PackageAdapter
class Joomla.CMS.Installer.Adapter.ModuleAdapter
Joomla.CMS.Installer.Adapter.InstallerAdapter <|-- Joomla.CMS.Installer.Adapter.ModuleAdapter
class Joomla.CMS.Installer.Adapter.LibraryAdapter
Joomla.CMS.Installer.Adapter.InstallerAdapter <|-- Joomla.CMS.Installer.Adapter.LibraryAdapter
class Joomla.CMS.Installer.Adapter.ComponentAdapter
Joomla.CMS.Installer.Adapter.InstallerAdapter <|-- Joomla.CMS.Installer.Adapter.ComponentAdapter
class Joomla.CMS.Installer.Adapter.FileAdapter
Joomla.CMS.Installer.Adapter.InstallerAdapter <|-- Joomla.CMS.Installer.Adapter.FileAdapter
@enduml
