@startuml
class Joomla.Filesystem.Support.StringController

abstract class Joomla.Filesystem.Folder
class Joomla.Filesystem.Clients.FtpClient
class Joomla.Filesystem.Exception.FilesystemException
RuntimeException <|-- Joomla.Filesystem.Exception.FilesystemException
class Joomla.Filesystem.Stream
class Joomla.Filesystem.File
class Joomla.Filesystem.Path
class Joomla.Filesystem.Buffer
class Joomla.Filesystem.Stream.StringWrapper
class Joomla.Filesystem.Stream.String
Joomla.Filesystem.Stream.StringWrapper <|-- Joomla.Filesystem.Stream.String
class Joomla.Filesystem.Patcher
class Joomla.Filesystem.Helper
@enduml
