@startuml
class Joomla.CMS.Application.WebApplication
Joomla.CMS.Application.BaseApplication <|-- Joomla.CMS.Application.WebApplication

abstract class Joomla.CMS.Application.BaseApplication
Joomla.CMS.Application.AbstractApplication <|-- Joomla.CMS.Application.BaseApplication
class Joomla.CMS.Application.CMSApplication
Joomla.CMS.Application.WebApplication <|-- Joomla.CMS.Application.CMSApplication
class Joomla.CMS.Application.ApplicationHelper
class Joomla.CMS.Application.SiteApplication
Joomla.CMS.Application.CMSApplication <|-- Joomla.CMS.Application.SiteApplication
class Joomla.CMS.Application.CliApplication
Joomla.CMS.Application.BaseApplication <|-- Joomla.CMS.Application.CliApplication
class Joomla.CMS.Application.AdministratorApplication
Joomla.CMS.Application.CMSApplication <|-- Joomla.CMS.Application.AdministratorApplication
class Joomla.CMS.Application.DaemonApplication
Joomla.CMS.Application.CliApplication <|-- Joomla.CMS.Application.DaemonApplication
@enduml
