@startuml
class Symfony.Polyfill.Php55.Php55

class Symfony.Polyfill.Php55.Php55ArrayColumn
class Symfony.Polyfill.Util.BinaryNoFuncOverload
class Symfony.Polyfill.Util.BinaryOnFuncOverload
class Symfony.Polyfill.Util.Binary
Symfony.Polyfill.Util.BinaryOnFuncOverload <|-- Symfony.Polyfill.Util.Binary
Symfony.Polyfill.Util.BinaryNoFuncOverload <|-- Symfony.Polyfill.Util.Binary
class Symfony.Polyfill.Php56.Php56
@enduml
