@startuml
class Joomla.CMS.Component.Router.Rules.NomenuRules
Joomla.CMS.Component.Router.Rules.RulesInterface <|.. Joomla.CMS.Component.Router.Rules.NomenuRules

class Joomla.CMS.Component.Router.Rules.MenuRules
Joomla.CMS.Component.Router.Rules.RulesInterface <|.. Joomla.CMS.Component.Router.Rules.MenuRules
class Joomla.CMS.Component.Router.Rules.StandardRules
Joomla.CMS.Component.Router.Rules.RulesInterface <|.. Joomla.CMS.Component.Router.Rules.StandardRules
interface Joomla.CMS.Component.Router.Rules.RulesInterface
class Joomla.CMS.Component.Router.RouterLegacy
Joomla.CMS.Component.Router.RouterInterface <|.. Joomla.CMS.Component.Router.RouterLegacy
abstract class Joomla.CMS.Component.Router.RouterBase
Joomla.CMS.Component.Router.RouterInterface <|.. Joomla.CMS.Component.Router.RouterBase
class Joomla.CMS.Component.Router.RouterViewConfiguration
abstract class Joomla.CMS.Component.Router.RouterView
Joomla.CMS.Component.Router.RouterBase <|-- Joomla.CMS.Component.Router.RouterView
interface Joomla.CMS.Component.Router.RouterInterface
@enduml
