@startuml
abstract class Joomla.Application.AbstractCliApplication
Joomla.Application.AbstractApplication <|-- Joomla.Application.AbstractCliApplication

class Joomla.Application.Web.WebClient
abstract class Joomla.Application.AbstractDaemonApplication
Joomla.Application.AbstractCliApplication <|-- Joomla.Application.AbstractDaemonApplication
Joomla.Application.LoggerAwareInterface <|.. Joomla.Application.AbstractDaemonApplication
abstract class Joomla.Application.AbstractApplication
Joomla.Application.LoggerAwareInterface <|.. Joomla.Application.AbstractApplication
class Joomla.Application.Cli.ColorStyle
class Joomla.Application.Cli.ColorProcessor
Joomla.Application.Cli.RealColorProcessor <|-- Joomla.Application.Cli.ColorProcessor
class Joomla.Application.Cli.CliInput
interface Joomla.Application.Cli.Output.Processor.ProcessorInterface
class Joomla.Application.Cli.Output.Processor.ColorProcessor
Joomla.Application.Cli.Output.Processor.ProcessorInterface <|.. Joomla.Application.Cli.Output.Processor.ColorProcessor
class Joomla.Application.Cli.Output.Xml
Joomla.Application.Cli.Output.CliOutput <|-- Joomla.Application.Cli.Output.Xml
class Joomla.Application.Cli.Output.Stdout
Joomla.Application.Cli.Output.CliOutput <|-- Joomla.Application.Cli.Output.Stdout
abstract class Joomla.Application.Cli.CliOutput
abstract class Joomla.Application.AbstractWebApplication
Joomla.Application.AbstractApplication <|-- Joomla.Application.AbstractWebApplication
@enduml
