@startuml
class Joomla.CMS.Feed.FeedLink

interface Joomla.CMS.Feed.Parser.NamespaceParserInterface
class Joomla.CMS.Feed.Parser.Rss.MediaRssParser
Joomla.CMS.Feed.Parser.Rss.NamespaceParserInterface <|.. Joomla.CMS.Feed.Parser.Rss.MediaRssParser
class Joomla.CMS.Feed.Parser.Rss.ItunesRssParser
Joomla.CMS.Feed.Parser.Rss.NamespaceParserInterface <|.. Joomla.CMS.Feed.Parser.Rss.ItunesRssParser
class Joomla.CMS.Feed.Parser.AtomParser
Joomla.CMS.Feed.Parser.FeedParser <|-- Joomla.CMS.Feed.Parser.AtomParser
class Joomla.CMS.Feed.Parser.RssParser
Joomla.CMS.Feed.Parser.FeedParser <|-- Joomla.CMS.Feed.Parser.RssParser
class Joomla.CMS.Feed.FeedFactory
class Joomla.CMS.Feed.Feed
ArrayAccess <|.. Joomla.CMS.Feed.Feed
class Joomla.CMS.Feed.FeedEntry
abstract class Joomla.CMS.Feed.FeedParser
class Joomla.CMS.Feed.FeedPerson
@enduml
