@startuml
interface Joomla.CMS.Crypt.CipherInterface

class Joomla.CMS.Crypt.Crypt
class Joomla.CMS.Crypt.Password.SimpleCryptPassword
Joomla.CMS.Crypt.Password.CryptPassword <|.. Joomla.CMS.Crypt.Password.SimpleCryptPassword
class Joomla.CMS.Crypt.Key
abstract class Joomla.CMS.Crypt.Cipher.McryptCipher
Joomla.CMS.Crypt.Cipher.CipherInterface <|.. Joomla.CMS.Crypt.Cipher.McryptCipher
class Joomla.CMS.Crypt.Cipher.BlowfishCipher
Joomla.CMS.Crypt.Cipher.McryptCipher <|-- Joomla.CMS.Crypt.Cipher.BlowfishCipher
class Joomla.CMS.Crypt.Cipher.CryptoCipher
Joomla.CMS.Crypt.Cipher.CipherInterface <|.. Joomla.CMS.Crypt.Cipher.CryptoCipher
class Joomla.CMS.Crypt.Cipher.SimpleCipher
Joomla.CMS.Crypt.Cipher.CipherInterface <|.. Joomla.CMS.Crypt.Cipher.SimpleCipher
class Joomla.CMS.Crypt.Cipher.TripleDesCipher
Joomla.CMS.Crypt.Cipher.McryptCipher <|-- Joomla.CMS.Crypt.Cipher.TripleDesCipher
class Joomla.CMS.Crypt.Cipher.Rijndael256Cipher
Joomla.CMS.Crypt.Cipher.McryptCipher <|-- Joomla.CMS.Crypt.Cipher.Rijndael256Cipher
class Joomla.CMS.Crypt.Cipher.SodiumCipher
Joomla.CMS.Crypt.Cipher.CipherInterface <|.. Joomla.CMS.Crypt.Cipher.SodiumCipher
interface Joomla.CMS.Crypt.CryptPassword
@enduml
