@startuml
set namespaceSeparator \\
hide members
hide << alias >> circle

class MongoDB\\Driver\\Exception\\ConnectionException
MongoDB\\Driver\\Exception\\RuntimeException <|-- MongoDB\\Driver\\Exception\\ConnectionException
interface MongoDB\\Driver\\Exception\\Exception
MongoDB\\Driver\\Exception\\Exception <|.. MongoDB\\Driver\\Exception\\ConnectionException
!include class-MongoDB.Driver.Exception.RuntimeException.puml
!include class-MongoDB.Driver.Exception.Exception.puml
@enduml
