@startuml
set namespaceSeparator \\
hide members
hide << alias >> circle

class Couchbase\\GeoDistanceSearchQuery << final >>
interface JsonSerializable
JsonSerializable <|.. Couchbase\\GeoDistanceSearchQuery
interface Couchbase\\SearchQueryPart
Couchbase\\SearchQueryPart <|.. Couchbase\\GeoDistanceSearchQuery
!include class-JsonSerializable.puml
!include class-Couchbase.SearchQueryPart.puml
@enduml
