@startuml
set namespaceSeparator \\
hide members
hide << alias >> circle

class MongoDB\\Driver\\Exception\\SSLConnectionException
MongoDB\\Driver\\Exception\\ConnectionException <|-- MongoDB\\Driver\\Exception\\SSLConnectionException
interface MongoDB\\Driver\\Exception\\Exception
MongoDB\\Driver\\Exception\\Exception <|.. MongoDB\\Driver\\Exception\\SSLConnectionException
!include class-MongoDB.Driver.Exception.ConnectionException.puml
!include class-MongoDB.Driver.Exception.Exception.puml
@enduml
