@startuml
!include skin.puml
set namespaceSeparator \\
hide members
hide << alias >> circle
!startsub INNER
abstract class RecursiveFilterIterator
FilterIterator <|-- RecursiveFilterIterator
interface RecursiveIterator
RecursiveIterator <|.. RecursiveFilterIterator
!includesub class-filteriterator.puml!INNER
!includesub class-recursiveiterator.puml!INNER
!endsub
@enduml
