@startuml
!include skin.puml
set namespaceSeparator \\
hide members
hide << alias >> circle
!startsub INNER
class SplFileObject
SplFileInfo <|-- SplFileObject
interface RecursiveIterator
RecursiveIterator <|.. SplFileObject
interface SeekableIterator
SeekableIterator <|.. SplFileObject
!includesub class-splfileinfo.puml!INNER
!includesub class-recursiveiterator.puml!INNER
!includesub class-seekableiterator.puml!INNER
!endsub
@enduml
