@startuml
!include skin.puml
set namespaceSeparator \\
hide members
hide << alias >> circle
!startsub INNER
class HttpRequestPool
interface Countable
Countable <|.. HttpRequestPool
interface Iterator
Iterator <|.. HttpRequestPool
!includesub class-countable.puml!INNER
!includesub class-iterator.puml!INNER
!endsub
@enduml
