@startuml
!include skin.puml
set namespaceSeparator \\
hide members
hide << alias >> circle
!startsub INNER
class http\\QueryString
interface Serializable
Serializable <|.. http\\QueryString
interface ArrayAccess
ArrayAccess <|.. http\\QueryString
interface IteratorAggregate
IteratorAggregate <|.. http\\QueryString
!includesub class-serializable.puml!INNER
!includesub class-arrayaccess.puml!INNER
!includesub class-iteratoraggregate.puml!INNER
!endsub
@enduml
