@startuml
!include skin.puml
set namespaceSeparator \\
hide members
hide << alias >> circle
!startsub INNER
class Threaded
interface Traversable
Traversable <|.. Threaded
interface Countable
Countable <|.. Threaded
interface ArrayAccess
ArrayAccess <|.. Threaded
!includesub class-traversable.puml!INNER
!includesub class-countable.puml!INNER
!includesub class-arrayaccess.puml!INNER
!endsub
@enduml
