@startuml
!include skin.puml
set namespaceSeparator \\
hide members
hide << alias >> circle
!startsub INNER
class SplFixedArray
interface Iterator
Iterator <|.. SplFixedArray
interface ArrayAccess
ArrayAccess <|.. SplFixedArray
interface Countable
Countable <|.. SplFixedArray
!includesub class-iterator.puml!INNER
!includesub class-arrayaccess.puml!INNER
!includesub class-countable.puml!INNER
!endsub
@enduml
