@startuml
set namespaceSeparator \\
hide members
hide << alias >> circle

class SplFixedArray
interface Iterator
Iterator <|.. SplFixedArray
interface ArrayAccess
ArrayAccess <|.. SplFixedArray
interface Countable
Countable <|.. SplFixedArray
!include class-Iterator.puml
!include class-ArrayAccess.puml
!include class-Countable.puml
@enduml
