@startuml
set namespaceSeparator \\
hide members
hide << alias >> circle

class CachingIterator
IteratorIterator <|-- CachingIterator
interface ArrayAccess
ArrayAccess <|.. CachingIterator
interface Countable
Countable <|.. CachingIterator
!include class-IteratorIterator.puml
!include class-ArrayAccess.puml
!include class-Countable.puml
@enduml
