@startuml
!include skin.puml
set namespaceSeparator \\
hide members
hide << alias >> circle
!startsub INNER
class MongoDB\\Driver\\Exception\\LogicException
LogicException <|-- MongoDB\\Driver\\Exception\\LogicException
interface MongoDB\\Driver\\Exception\\Exception
MongoDB\\Driver\\Exception\\Exception <|.. MongoDB\\Driver\\Exception\\LogicException
!includesub class-logicexception.puml!INNER
!includesub class-mongodb.driver.exception.exception.puml!INNER
!endsub
@enduml
