@startuml
!include skin.puml
set namespaceSeparator \\
hide members
hide << alias >> circle
!startsub INNER
class DirectoryIterator
SplFileInfo <|-- DirectoryIterator
interface SeekableIterator
SeekableIterator <|.. DirectoryIterator
!includesub class-splfileinfo.puml!INNER
!includesub class-seekableiterator.puml!INNER
!endsub
@enduml
