@startuml
!include skin.puml
set namespaceSeparator \\
hide members
hide << alias >> circle
!startsub INNER
class Couchbase\\DateRangeSearchQuery << final >>
interface JsonSerializable
JsonSerializable <|.. Couchbase\\DateRangeSearchQuery
interface Couchbase\\SearchQueryPart
Couchbase\\SearchQueryPart <|.. Couchbase\\DateRangeSearchQuery
!includesub class-jsonserializable.puml!INNER
!includesub class-couchbase.searchquerypart.puml!INNER
!endsub
@enduml
