@startuml
!include skin.puml
set namespaceSeparator \\
hide members
hide << alias >> circle
!startsub INNER
class Couchbase\\PrefixSearchQuery << final >>
interface JsonSerializable
JsonSerializable <|.. Couchbase\\PrefixSearchQuery
interface Couchbase\\SearchQueryPart
Couchbase\\SearchQueryPart <|.. Couchbase\\PrefixSearchQuery
!includesub class-jsonserializable.puml!INNER
!includesub class-couchbase.searchquerypart.puml!INNER
!endsub
@enduml
