@startuml
!include skin.puml
set namespaceSeparator \\
hide members
hide << alias >> circle
!startsub INNER
class Couchbase\\ConjunctionSearchQuery << final >>
interface JsonSerializable
JsonSerializable <|.. Couchbase\\ConjunctionSearchQuery
interface Couchbase\\SearchQueryPart
Couchbase\\SearchQueryPart <|.. Couchbase\\ConjunctionSearchQuery
!includesub class-jsonserializable.puml!INNER
!includesub class-couchbase.searchquerypart.puml!INNER
!endsub
@enduml
