@startuml
set namespaceSeparator \\
hide members
hide << alias >> circle

class Couchbase\\MatchNoneSearchQuery << final >>
interface JsonSerializable
JsonSerializable <|.. Couchbase\\MatchNoneSearchQuery
interface Couchbase\\SearchQueryPart
Couchbase\\SearchQueryPart <|.. Couchbase\\MatchNoneSearchQuery
!include class-JsonSerializable.puml
!include class-Couchbase.SearchQueryPart.puml
@enduml
