@startuml
!include skin.puml
set namespaceSeparator \\
hide members
hide << alias >> circle
!startsub INNER
class http\\Exception\\BadHeaderException
DomainException <|-- http\\Exception\\BadHeaderException
interface http\\Exception
http\\Exception <|.. http\\Exception\\BadHeaderException
!includesub class-domainexception.puml!INNER
!includesub class-http.exception.puml!INNER
!endsub
@enduml
