@startuml
!include skin.puml
set namespaceSeparator \\
hide members
hide << alias >> circle
!startsub INNER
class Couchbase\\MatchPhraseSearchQuery << final >>
interface JsonSerializable
JsonSerializable <|.. Couchbase\\MatchPhraseSearchQuery
interface Couchbase\\SearchQueryPart
Couchbase\\SearchQueryPart <|.. Couchbase\\MatchPhraseSearchQuery
!includesub class-jsonserializable.puml!INNER
!includesub class-couchbase.searchquerypart.puml!INNER
!endsub
@enduml
