@startuml
!include skin.puml
set namespaceSeparator \\
hide members
hide << alias >> circle
!startsub INNER
class http\\Exception\\BadMethodCallException
BadMethodCallException <|-- http\\Exception\\BadMethodCallException
interface http\\Exception
http\\Exception <|.. http\\Exception\\BadMethodCallException
!includesub class-badmethodcallexception.puml!INNER
!includesub class-http.exception.puml!INNER
!endsub
@enduml
