@startuml
!include skin.puml
set namespaceSeparator \\
hide members
hide << alias >> circle
!startsub INNER
class IntlRuleBasedBreakIterator
IntlBreakIterator <|-- IntlRuleBasedBreakIterator
interface Traversable
Traversable <|.. IntlRuleBasedBreakIterator
!includesub class-intlbreakiterator.puml!INNER
!includesub class-traversable.puml!INNER
!endsub
@enduml
