@startuml
!include skin.puml
set namespaceSeparator \\
hide members
hide << alias >> circle
!startsub INNER
class MongoDB\\Driver\\Exception\\AuthenticationException
MongoDB\\Driver\\Exception\\ConnectionException <|-- MongoDB\\Driver\\Exception\\AuthenticationException
interface MongoDB\\Driver\\Exception\\Exception
MongoDB\\Driver\\Exception\\Exception <|.. MongoDB\\Driver\\Exception\\AuthenticationException
!includesub class-mongodb.driver.exception.connectionexception.puml!INNER
!includesub class-mongodb.driver.exception.exception.puml!INNER
!endsub
@enduml
