@startuml
!include skin.puml
set namespaceSeparator \\
hide members
hide << alias >> circle
!startsub INNER
class Stackable
Threaded <|-- Stackable
interface Traversable
Traversable <|.. Stackable
interface Countable
Countable <|.. Stackable
interface ArrayAccess
ArrayAccess <|.. Stackable
!includesub class-threaded.puml!INNER
!includesub class-traversable.puml!INNER
!includesub class-countable.puml!INNER
!includesub class-arrayaccess.puml!INNER
!endsub
@enduml
