@startuml
set namespaceSeparator \\
hide members
hide << alias >> circle

class Couchbase\\WildcardSearchQuery << final >>
interface JsonSerializable
JsonSerializable <|.. Couchbase\\WildcardSearchQuery
interface Couchbase\\SearchQueryPart
Couchbase\\SearchQueryPart <|.. Couchbase\\WildcardSearchQuery
!include class-JsonSerializable.puml
!include class-Couchbase.SearchQueryPart.puml
@enduml
