@startuml
!include skin.puml
set namespaceSeparator \\
hide members
hide << alias >> circle
!startsub INNER
class RecursiveArrayIterator
ArrayIterator <|-- RecursiveArrayIterator
interface RecursiveIterator
RecursiveIterator <|.. RecursiveArrayIterator
!includesub class-arrayiterator.puml!INNER
!includesub class-recursiveiterator.puml!INNER
!endsub
@enduml
