@startuml
!include skin.puml
set namespaceSeparator \\
hide members
hide << alias >> circle
!startsub INNER
class MongoDB\\Driver\\Exception\\BulkWriteException
MongoDB\\Driver\\Exception\\WriteException <|-- MongoDB\\Driver\\Exception\\BulkWriteException
interface MongoDB\\Driver\\Exception\\Exception
MongoDB\\Driver\\Exception\\Exception <|.. MongoDB\\Driver\\Exception\\BulkWriteException
!includesub class-mongodb.driver.exception.writeexception.puml!INNER
!includesub class-mongodb.driver.exception.exception.puml!INNER
!endsub
@enduml
