@startuml
!include skin.puml
set namespaceSeparator \\
hide members
hide << alias >> circle
!startsub INNER
class Worker
Thread <|-- Worker
interface Traversable
Traversable <|.. Worker
interface Countable
Countable <|.. Worker
interface ArrayAccess
ArrayAccess <|.. Worker
!includesub class-thread.puml!INNER
!includesub class-traversable.puml!INNER
!includesub class-countable.puml!INNER
!includesub class-arrayaccess.puml!INNER
!endsub
@enduml
